%TF.GenerationSoftware,KiCad,Pcbnew,8.0.6*%
%TF.CreationDate,2025-04-14T23:14:49-04:00*%
%TF.ProjectId,Untitled,556e7469-746c-4656-942e-6b696361645f,rev?*%
%TF.SameCoordinates,Original*%
%TF.FileFunction,Copper,L1,Top*%
%TF.FilePolarity,Positive*%
%FSLAX46Y46*%
G04 Gerber Fmt 4.6, Leading zero omitted, Abs format (unit mm)*
G04 Created by KiCad (PCBNEW 8.0.6) date 2025-04-14 23:14:49*
%MOMM*%
%LPD*%
G01*
G04 APERTURE LIST*
G04 Aperture macros list*
%AMRoundRect*
0 Rectangle with rounded corners*
0 $1 Rounding radius*
0 $2 $3 $4 $5 $6 $7 $8 $9 X,Y pos of 4 corners*
0 Add a 4 corners polygon primitive as box body*
4,1,4,$2,$3,$4,$5,$6,$7,$8,$9,$2,$3,0*
0 Add four circle primitives for the rounded corners*
1,1,$1+$1,$2,$3*
1,1,$1+$1,$4,$5*
1,1,$1+$1,$6,$7*
1,1,$1+$1,$8,$9*
0 Add four rect primitives between the rounded corners*
20,1,$1+$1,$2,$3,$4,$5,0*
20,1,$1+$1,$4,$5,$6,$7,0*
20,1,$1+$1,$6,$7,$8,$9,0*
20,1,$1+$1,$8,$9,$2,$3,0*%
G04 Aperture macros list end*
%TA.AperFunction,SMDPad,CuDef*%
%ADD10RoundRect,0.225000X-0.250000X0.225000X-0.250000X-0.225000X0.250000X-0.225000X0.250000X0.225000X0*%
%TD*%
%TA.AperFunction,SMDPad,CuDef*%
%ADD11RoundRect,0.150000X-0.150000X0.587500X-0.150000X-0.587500X0.150000X-0.587500X0.150000X0.587500X0*%
%TD*%
%TA.AperFunction,SMDPad,CuDef*%
%ADD12RoundRect,0.375000X-0.875000X-0.375000X0.875000X-0.375000X0.875000X0.375000X-0.875000X0.375000X0*%
%TD*%
%TA.AperFunction,Conductor*%
%ADD13C,0.200000*%
%TD*%
G04 APERTURE END LIST*
D10*
%TO.P,C3,1*%
%TO.N,+3V3*%
X184000000Y-89800000D03*
%TO.P,C3,2*%
%TO.N,GND*%
X184000000Y-91350000D03*
%TD*%
%TO.P,C2,2*%
%TO.N,GND*%
X172000000Y-91375000D03*
%TO.P,C2,1*%
%TO.N,+3V3*%
X172000000Y-89825000D03*
%TD*%
%TO.P,C1,1*%
%TO.N,+3V3*%
X160000000Y-89800000D03*
%TO.P,C1,2*%
%TO.N,GND*%
X160000000Y-91350000D03*
%TD*%
D11*
%TO.P,U2,1,VCC*%
%TO.N,+3V3*%
X172950000Y-93062500D03*
%TO.P,U2,2,OUT*%
%TO.N,Net-(U2-OUT)*%
X171050000Y-93062500D03*
%TO.P,U2,3,GND*%
%TO.N,GND*%
X172000000Y-94937500D03*
%TD*%
%TO.P,U3,1,VCC*%
%TO.N,+3V3*%
X160950000Y-93062500D03*
%TO.P,U3,2,OUT*%
%TO.N,Net-(U3-OUT)*%
X159050000Y-93062500D03*
%TO.P,U3,3,GND*%
%TO.N,GND*%
X160000000Y-94937500D03*
%TD*%
D12*
%TO.P,U4,1,Vcc*%
%TO.N,+3V3*%
X150412500Y-90000000D03*
%TO.P,U4,2,Gnd*%
%TO.N,GND*%
X150412500Y-92000000D03*
%TO.P,U4,3,ADC_1*%
%TO.N,Net-(U3-OUT)*%
X150412500Y-94000000D03*
%TO.P,U4,4,ADC_2*%
%TO.N,Net-(U2-OUT)*%
X150412500Y-96000000D03*
%TO.P,U4,5,ADC_3*%
%TO.N,Net-(U1-OUT)*%
X150412500Y-98000000D03*
%TD*%
D11*
%TO.P,U1,1,VCC*%
%TO.N,+3V3*%
X184950000Y-93062500D03*
%TO.P,U1,2,OUT*%
%TO.N,Net-(U1-OUT)*%
X183050000Y-93062500D03*
%TO.P,U1,3,GND*%
%TO.N,GND*%
X184000000Y-94937500D03*
%TD*%
D13*
%TO.N,GND*%
X184000000Y-91350000D02*
X184000000Y-94937500D01*
X172000000Y-94937500D02*
X179796948Y-94937500D01*
X179796948Y-94937500D02*
X183384448Y-91350000D01*
X183384448Y-91350000D02*
X184000000Y-91350000D01*
%TO.N,+3V3*%
X184000000Y-89800000D02*
X184950000Y-90750000D01*
X184950000Y-90750000D02*
X184950000Y-93062500D01*
X172000000Y-89825000D02*
X172950000Y-90775000D01*
X172950000Y-90775000D02*
X172950000Y-93062500D01*
%TO.N,GND*%
X172000000Y-91375000D02*
X172000000Y-94937500D01*
X160000000Y-94937500D02*
X167796948Y-94937500D01*
X167796948Y-94937500D02*
X171359448Y-91375000D01*
X171359448Y-91375000D02*
X172000000Y-91375000D01*
%TO.N,+3V3*%
X172000000Y-89825000D02*
X183975000Y-89825000D01*
X183975000Y-89825000D02*
X184000000Y-89800000D01*
X160000000Y-89800000D02*
X171975000Y-89800000D01*
X171975000Y-89800000D02*
X172000000Y-89825000D01*
X150412500Y-90000000D02*
X159800000Y-90000000D01*
X159800000Y-90000000D02*
X160000000Y-89800000D01*
X160000000Y-89800000D02*
X160950000Y-90750000D01*
X160950000Y-90750000D02*
X160950000Y-93062500D01*
%TO.N,GND*%
X150412500Y-92000000D02*
X159350000Y-92000000D01*
X159350000Y-92000000D02*
X160000000Y-91350000D01*
X160000000Y-94937500D02*
X160000000Y-91350000D01*
%TO.N,Net-(U1-OUT)*%
X178112500Y-98000000D02*
X183050000Y-93062500D01*
X150412500Y-98000000D02*
X178112500Y-98000000D01*
%TO.N,Net-(U2-OUT)*%
X168112500Y-96000000D02*
X150412500Y-96000000D01*
X171050000Y-93062500D02*
X168112500Y-96000000D01*
%TO.N,Net-(U3-OUT)*%
X159050000Y-93062500D02*
X158112500Y-94000000D01*
X158112500Y-94000000D02*
X150412500Y-94000000D01*
%TD*%
M02*
